<?xml version="1.0" encoding="utf-8"?>
<!-- Generator: Adobe Illustrator 26.2.1, SVG Export Plug-In . SVG Version: 6.00 Build 0)  -->
<svg version="1.1" id="Layer_1" xmlns="http://www.w3.org/2000/svg" xmlns:xlink="http://www.w3.org/1999/xlink" x="0px" y="0px"
	 viewBox="0 0 200 200" style="enable-background:new 0 0 200 200;" xml:space="preserve">
<style type="text/css">
	.st0{fill:#4CA1DA;}
	.st1{fill:#1F2232;}
</style>
<path class="st0" d="M418,55.1h-6.6v6.6c0,0.9-0.3,1.7-1,2.3c-0.6,0.6-1.5,1-2.3,1h-13.2c-1.8,0-3.3-1.5-3.3-3.3v-6.6h-6.6v6.6
	c0,0.9-0.3,1.7-1,2.3c-0.6,0.6-1.5,1-2.3,1h-13.2c-1.8,0-3.3-1.5-3.3-3.3v-6.6h-6.6v16.5H418V55.1z"/>
<path class="st0" d="M365.1,78.2h46.3v6.6h-46.3V78.2z"/>
<path class="st0" d="M411.4,164.2c-4.2-6.9-9.9-20.4-9.9-43V91.4H375v29.8c0,22.3-5.9,36-10.1,43H411.4z"/>
<path class="st0" d="M355.2,170.8h66.2v6.6h-66.2V170.8z"/>
<path class="st1" d="M312.2,71.6c-0.6,0-1.2-0.1-1.7-0.2l-4.9,4.9v8.6c0,0.8-0.3,1.5-0.8,2.1c6.6,2.2,14,1.3,19.9-2.4
	c5.9-3.8,9.8-10,10.5-17c0.8-7-1.7-13.9-6.6-18.9c-5-5-11.9-7.4-18.9-6.6c-7,0.8-13.2,4.6-17,10.5c-3.8,5.9-4.7,13.2-2.4,19.9
	c0.6-0.5,1.3-0.8,2.1-0.8h8.6l4.9-4.9h0c-0.5-1.8-0.2-3.7,0.8-5.3c1-1.6,2.6-2.6,4.4-3c1.8-0.3,3.7,0.1,5.2,1.3
	c1.5,1.1,2.4,2.8,2.6,4.7c0.2,1.8-0.5,3.7-1.7,5C315.8,70.8,314,71.6,312.2,71.6L312.2,71.6z"/>
<path class="st1" d="M265.9,96.9l0.7-0.9l0,0c0.1-0.1,0.2-0.2,0.3-0.3l6.1-6.1c-7-11.1-8.9-24.6-5.4-37.1
	c3.5-12.6,12.2-23.1,23.9-28.9c11.7-5.8,25.3-6.5,37.5-1.7s21.8,14.4,26.4,26.6h10.5h0c-3.5-11.5-10.7-21.6-20.4-28.7
	c-9.7-7.1-21.4-11-33.4-11c-31,0-56.2,25.2-56.2,56.2C255.9,76.4,259.4,87.5,265.9,96.9L265.9,96.9z"/>
<path class="st1" d="M358.5,88.1v-9.9h-1.9c-1,3.5-2.5,6.8-4.3,9.9H358.5z"/>
<path class="st1" d="M239.4,113.9v17.5l16.6-21.6L239.4,113.9z"/>
<path class="st0" d="M348.6,160.9h-36.4v19.8h29.8c0-1.8,1.5-3.3,3.3-3.3h3.3V160.9z"/>
<path class="st0" d="M355.2,157.6v6.6h1.8c2.1-2.8,3.9-5.9,5.3-9.2c2.8-6.5,6.2-17.6,6.2-33.8V94.8H297l-1.4,1.4V194h46.3v-6.6
	h-33.1c-1.8,0-3.3-1.5-3.3-3.3v-26.5c0-1.8,1.5-3.3,3.3-3.3h43c0.9,0,1.7,0.3,2.3,1C354.8,155.9,355.2,156.7,355.2,157.6
	L355.2,157.6z M308.9,101.4h46.3c1.8,0,3.3,1.5,3.3,3.3c0,1.8-1.5,3.3-3.3,3.3h-46.3c-1.8,0-3.3-1.5-3.3-3.3
	C305.5,102.8,307,101.4,308.9,101.4z M308.9,114.6h46.3c1.8,0,3.3,1.5,3.3,3.3s-1.5,3.3-3.3,3.3h-46.3c-1.8,0-3.3-1.5-3.3-3.3
	S307,114.6,308.9,114.6z M308.9,127.8h46.3c1.8,0,3.3,1.5,3.3,3.3s-1.5,3.3-3.3,3.3h-46.3c-1.8,0-3.3-1.5-3.3-3.3
	S307,127.8,308.9,127.8z M305.5,144.4c0-1.8,1.5-3.3,3.3-3.3h46.3c1.8,0,3.3,1.5,3.3,3.3s-1.5,3.3-3.3,3.3h-46.3
	C307,147.7,305.5,146.2,305.5,144.4z"/>
<path class="st1" d="M276.9,105.5l22-22v-5.2h-5.2l-22,22L254.2,123L276.9,105.5z"/>
<path class="st0" d="M348.6,184.1h79.4v9.9h-79.4V184.1z"/>
<path class="st1" d="M280.2,111.3c2.8,1.9,5.7,3.6,8.8,5v-13.5l-7.6,7.6c-0.1,0.1-0.2,0.2-0.3,0.3L280.2,111.3z"/>
<path class="st1" d="M263.3,137.8l4.2-16.6l-21.6,16.6H263.3z"/>
<path class="st1" d="M351.9,65c0-12.3-5.7-24-15.5-31.5c-9.8-7.5-22.5-10-34.4-6.9c-11.9,3.2-21.7,11.7-26.4,23.1
	c-4.7,11.4-3.9,24.3,2.3,35l7.4-7.4c-3.1-6.8-3.6-14.5-1.3-21.6c2.3-7.1,7.2-13.1,13.7-16.8c6.5-3.7,14.2-4.8,21.4-3.1
	c7.3,1.7,13.6,6.1,17.8,12.3c4.2,6.2,5.9,13.7,4.8,21.1c-1.1,7.4-4.9,14.1-10.8,18.8h13.6C349.3,81.4,351.9,73.3,351.9,65L351.9,65z
	"/>
<path class="st0" d="M-154.4,13.3c-0.9-0.6-2.1-0.6-3,0l-75.9,40.2c-0.9,0.6-1.5,1.5-1.5,2.7v133.1c0,1.5,1.5,3,3,3h75.9
	c1.5,0,3-1.5,3-3V16C-152.9,14.8-153.5,13.9-154.4,13.3L-154.4,13.3z M-216.3,178.9c0,1.8-1.5,3-3,3c-1.8,0-3-1.2-3-3v-15.8
	c0-1.5,1.2-3,3-3c1.5,0,3,1.5,3,3V178.9z M-216.3,147c0,1.5-1.5,3-3,3c-1.8,0-3-1.5-3-3v-15.8c0-1.8,1.2-3,3-3c1.5,0,3,1.2,3,3V147z
	 M-216.3,115.5c0,1.5-1.5,3-3,3c-1.8,0-3-1.5-3-3V100c0-1.8,1.2-3,3-3c1.5,0,3,1.2,3,3V115.5z M-216.3,83.9c0,1.5-1.5,3-3,3
	c-1.8,0-3-1.5-3-3V68.4c0-1.5,1.2-3,3-3c1.5,0,3,1.5,3,3V83.9z M-191,178.9c0,1.8-1.2,3-3,3s-3-1.2-3-3v-15.8c0-1.5,1.2-3,3-3
	s3,1.5,3,3V178.9z M-191,147c0,1.5-1.2,3-3,3s-3-1.5-3-3v-15.8c0-1.8,1.2-3,3-3s3,1.2,3,3V147z M-191,115.5c0,1.5-1.2,3-3,3
	s-3-1.5-3-3V100c0-1.8,1.2-3,3-3s3,1.2,3,3V115.5z M-191,83.9c0,1.5-1.2,3-3,3s-3-1.5-3-3V68.4c0-1.5,1.2-3,3-3s3,1.5,3,3V83.9z
	 M-165.7,178.9c0,1.8-1.2,3-3,3c-1.5,0-3-1.2-3-3v-15.8c0-1.5,1.5-3,3-3c1.8,0,3,1.5,3,3V178.9z M-165.7,147c0,1.5-1.2,3-3,3
	c-1.5,0-3-1.5-3-3v-15.8c0-1.8,1.5-3,3-3c1.8,0,3,1.2,3,3V147z M-165.7,115.5c0,1.5-1.2,3-3,3c-1.5,0-3-1.5-3-3V100c0-1.8,1.5-3,3-3
	c1.8,0,3,1.2,3,3V115.5z M-165.7,83.9c0,1.5-1.2,3-3,3c-1.5,0-3-1.5-3-3V68.4c0-1.5,1.5-3,3-3c1.8,0,3,1.5,3,3V83.9z"/>
<path class="st1" d="M-241,189.3V72.6l-47.1,29.8c-0.6,0.6-1.2,1.5-1.2,2.7v84.6c0,1.5,1.2,3,3,3h45.9
	C-240.7,191.4-241,190.5-241,189.3L-241,189.3z M-269.9,175.6c0,1.5-1.5,3-3,3c-1.8,0-3-1.5-3-3v-10.4c0-1.5,1.2-3,3-3
	c1.5,0,3,1.5,3,3V175.6z M-269.9,148.2c0,1.8-1.5,3-3,3c-1.8,0-3-1.2-3-3v-10.4c0-1.5,1.2-3,3-3c1.5,0,3,1.5,3,3V148.2z
	 M-269.9,120.8c0,1.5-1.5,3-3,3c-1.8,0-3-1.5-3-3v-10.4c0-1.8,1.2-3,3-3c1.5,0,3,1.2,3,3V120.8z M-253.8,175.6c0,1.5-1.2,3-3,3
	s-3-1.5-3-3v-10.4c0-1.5,1.2-3,3-3s3,1.5,3,3V175.6z M-253.8,148.2c0,1.8-1.2,3-3,3s-3-1.2-3-3v-10.4c0-1.5,1.2-3,3-3s3,1.5,3,3
	V148.2z M-253.8,120.8c0,1.5-1.2,3-3,3s-3-1.5-3-3v-10.4c0-1.8,1.2-3,3-3s3,1.2,3,3V120.8z"/>
<path class="st1" d="M-100.2,102.4l-47.1-29.8v117c0,0.9-0.3,2.1-0.6,3h46.2c1.8,0,3-1.5,3-3V105C-98.7,103.9-99.3,103-100.2,102.4
	L-100.2,102.4z M-127.9,175.6c0,1.5-1.2,3-3,3c-1.5,0-3-1.5-3-3v-10.4c0-1.5,1.5-3,3-3c1.8,0,3,1.5,3,3V175.6z M-127.9,148.2
	c0,1.8-1.2,3-3,3c-1.5,0-3-1.2-3-3v-10.4c0-1.5,1.5-3,3-3c1.8,0,3,1.5,3,3V148.2z M-127.9,120.8c0,1.5-1.2,3-3,3c-1.5,0-3-1.5-3-3
	v-10.4c0-1.8,1.5-3,3-3c1.8,0,3,1.2,3,3V120.8z M-112.4,175.6c0,1.5-1.5,3-3,3c-1.8,0-3-1.5-3-3v-10.4c0-1.5,1.2-3,3-3
	c1.5,0,3,1.5,3,3V175.6z M-112.4,148.2c0,1.8-1.5,3-3,3c-1.8,0-3-1.2-3-3v-10.4c0-1.5,1.2-3,3-3c1.5,0,3,1.5,3,3V148.2z
	 M-112.4,120.8c0,1.5-1.5,3-3,3c-1.8,0-3-1.5-3-3v-10.4c0-1.8,1.2-3,3-3c1.5,0,3,1.2,3,3V120.8z"/>
<path class="st1" d="M143.7,149.6c-0.3-0.6-0.6-1.2-0.6-1.9l0.3-4l-4-1.5c-0.6-0.3-0.9-0.6-1.5-0.9l-2.5-3.1l-3.7,1.2
	c-0.6,0.3-1.2,0.3-1.9,0l-4-1.2l-2.5,3.1c-0.3,0.6-0.9,0.9-1.5,1.2l-4,1.2v4.3c0,0.6-0.3,1.2-0.6,1.9l-2.5,3.1l2.5,3.4
	c0.3,0.6,0.6,1.2,0.6,1.9v4l4,1.2c0.6,0.3,0.9,0.6,1.5,1.2l2.5,3.4l4-1.5c0.6-0.3,1.5-0.3,2.2,0l3.7,1.2l2.5-3.4
	c0.3-0.6,1.2-0.9,1.9-1.2l3.7-0.9v-4c0-0.6,0.3-1.2,0.6-1.9l2.5-3.4L143.7,149.6z M129.4,149.9c-1.5,0-3.1,1.5-3.1,3.1
	c0,1.5-1.5,3.1-3.1,3.1s-3.1-1.5-3.1-3.1c0-5.3,4-9.3,9.3-9.3c1.5,0,3.1,1.5,3.1,3.1C132.5,148.4,131,149.9,129.4,149.9z"/>
<path class="st1" d="M135.6,174.7l-5.3-1.9l-5.3,1.9c-2.5,0.9-4-1.9-4-1.9v18.9l7.7-4c0.9-0.3,1.9-0.3,2.8,0l7.7,4v-19.2
	C139.6,172.2,137.5,175.6,135.6,174.7z"/>
<path class="st0" d="M46.2,165.1l31,9.3l-26-16.4C50.2,160.8,48.6,163.2,46.2,165.1z"/>
<path class="st0" d="M154.2,13.8H43.1c-1.9,0-3.4,1.5-3.4,3.4v144.5c3.7-1.2,6.2-4.6,6.2-8.7c0-1.2,0.9-4.3,4.6-2.5l48.9,30.3h15.5
	v-13c0,0-3.4-0.6-3.4-3.4v-5.6l-3.1-4.3c-0.9-1.2-0.6-2.5,0-3.7l3.1-4v-5.6c0-1.2,0.9-2.5,2.2-3.1l5.3-1.5l3.1-4.3
	c0.9-1.2,2.2-1.5,3.4-1.2l5.3,1.9l5-1.5c1.2-0.3,2.5,0,3.4,1.2l3.1,4.3l5.3,1.9c1.2,0.3,2.2,1.5,2.2,3.1l-0.3,5.3l3.1,4.3
	c0.6,1.2,0.6,2.5,0,3.7l-3.1,4.3v5c0,2.8-3.4,3.4-3.4,3.4v13.3h8c2.2,0,3.4-1.9,3.4-3.4V17.2C157.3,15.3,156,13.8,154.2,13.8
	L154.2,13.8z M123.2,19.9h6.2c1.5,0,3.1,1.5,3.1,3.1s-1.5,3.1-3.1,3.1h-6.2c-1.5,0-3.1-1.5-3.1-3.1S121.7,19.9,123.2,19.9z
	 M61.3,32.3h74.3c1.5,0,3.1,1.5,3.1,3.1s-1.5,3.1-3.1,3.1H61.3c-1.5,0-3.1-1.5-3.1-3.1S59.8,32.3,61.3,32.3z M110.9,131.4H49
	c-1.5,0-3.1-1.5-3.1-3.1c0-1.5,1.5-3.1,3.1-3.1h61.9c1.5,0,3.1,1.5,3.1,3.1C114,129.8,112.4,131.4,110.9,131.4z M148,106.6H49
	c-1.5,0-3.1-1.5-3.1-3.1s1.5-3.1,3.1-3.1h99c1.5,0,3.1,1.5,3.1,3.1S149.5,106.6,148,106.6z M148,81.8H49c-1.5,0-3.1-1.5-3.1-3.1
	s1.5-3.1,3.1-3.1h99c1.5,0,3.1,1.5,3.1,3.1S149.5,81.8,148,81.8z M148,57.1H49c-1.5,0-3.1-1.5-3.1-3.1s1.5-3.1,3.1-3.1h99
	c1.5,0,3.1,1.5,3.1,3.1S149.5,57.1,148,57.1z M151.1,35.4c0,1.5-1.5,3.1-3.1,3.1c-1.5,0-3.1-1.5-3.1-3.1v-9.3c0,0-6.2,1.2-6.2-3.1
	c0-4,6.2-3.1,6.2-3.1c4,0,6.2,3.1,6.2,7.1V35.4z"/>
<path class="st0" d="M404.6,492.7H521V333.4H404.6V492.7z M511.8,480.4h-27.6c-1.3,0-2.5-0.8-2.9-2.1l-1.5-4.5l-5.7,5.7
	c-0.6,0.6-1.4,0.9-2.2,0.9c-0.2,0-0.3,0-0.5,0c-1-0.2-1.8-0.8-2.2-1.7l-1.5-3l-6.3,4.2v0c-0.5,0.3-1.1,0.5-1.7,0.5h-9.2
	c-1.7,0-3.1-1.4-3.1-3.1s1.4-3.1,3.1-3.1h8.3l8.4-5.6h0c0.7-0.5,1.6-0.6,2.5-0.4c0.8,0.2,1.6,0.8,2,1.6l1.2,2.3l6.2-6.2v0
	c0.8-0.8,1.8-1.1,2.9-0.8c1,0.2,1.9,1,2.2,2l2.4,7.1h25.4c1.7,0,3.1,1.4,3.1,3.1C514.8,479.1,513.5,480.4,511.8,480.4L511.8,480.4z
	 M459.7,354.8h42.9c1.7,0,3.1,1.4,3.1,3.1c0,1.7-1.4,3.1-3.1,3.1h-42.9c-1.7,0-3.1-1.4-3.1-3.1C456.6,356.2,458,354.8,459.7,354.8z
	 M459.7,367.1h42.9c1.7,0,3.1,1.4,3.1,3.1s-1.4,3.1-3.1,3.1h-42.9c-1.7,0-3.1-1.4-3.1-3.1S458,367.1,459.7,367.1z M413.8,351.8
	c0-1.1,0.6-2.1,1.5-2.6l15.3-9.2c1-0.6,2.2-0.6,3.2,0l15.3,9.2c0.9,0.6,1.5,1.6,1.5,2.6c0,19.7-16.1,29.8-16.8,30.2
	c-1,0.6-2.2,0.6-3.2,0C413.8,372,413.7,352.6,413.8,351.8L413.8,351.8z M413.8,391.6h98c1.7,0,3.1,1.4,3.1,3.1
	c0,1.7-1.4,3.1-3.1,3.1h-98c-1.7,0-3.1-1.4-3.1-3.1C410.7,393,412.1,391.6,413.8,391.6z M413.8,403.9h98c1.7,0,3.1,1.4,3.1,3.1
	s-1.4,3.1-3.1,3.1h-98c-1.7,0-3.1-1.4-3.1-3.1S412.1,403.9,413.8,403.9z M413.8,416.1h98c1.7,0,3.1,1.4,3.1,3.1
	c0,1.7-1.4,3.1-3.1,3.1h-98c-1.7,0-3.1-1.4-3.1-3.1C410.7,417.5,412.1,416.1,413.8,416.1z M413.8,428.4h98c1.7,0,3.1,1.4,3.1,3.1
	s-1.4,3.1-3.1,3.1h-98c-1.7,0-3.1-1.4-3.1-3.1S412.1,428.4,413.8,428.4z M413.8,440.6h98c1.7,0,3.1,1.4,3.1,3.1
	c0,1.7-1.4,3.1-3.1,3.1h-98c-1.7,0-3.1-1.4-3.1-3.1C410.7,442,412.1,440.6,413.8,440.6z M413.8,452.9h98c1.7,0,3.1,1.4,3.1,3.1
	s-1.4,3.1-3.1,3.1h-98c-1.7,0-3.1-1.4-3.1-3.1S412.1,452.9,413.8,452.9z"/>
<path class="st0" d="M432.1,375.7c3.5-2.6,11.6-10.1,12.3-22.2l-12.2-7.3l-12.1,7.3C420.4,357.7,422.4,368.9,432.1,375.7
	L432.1,375.7z"/>
<path class="st0" d="M398.4,330.3c0-1.7,1.4-3.1,3.1-3.1h104.1v-6.1H389.2v159.3h9.2V330.3z"/>
<path class="st1" d="M533.2,382.4h12.3v85.8h-12.3V382.4z"/>
<path class="st1" d="M533.2,364h12.3v12.3h-12.3V364z"/>
<path class="st1" d="M533.2,364h12.3c3.2,0,6.4,1.3,8.7,3.6c2.3,2.3,3.6,5.4,3.6,8.7v25.4c0,1,0.2,1.9,0.6,2.7l2.1,4.2
	c0.4,0.7,0.4,1.6,0.2,2.3c-0.3,0.8-0.8,1.4-1.5,1.8c-0.7,0.4-1.6,0.4-2.4,0.2c-0.8-0.3-1.4-0.8-1.8-1.6l-2.1-4.2
	c-0.8-1.7-1.3-3.6-1.3-5.5v-25.4c0-1.6-0.6-3.2-1.8-4.3c-1.1-1.1-2.7-1.8-4.3-1.8h-12.3L533.2,364z"/>
<path class="st1" d="M539.3,370.2c-1.7,0-3.1-1.4-3.1-3.1V361c0-1.7,1.4-3.1,3.1-3.1s3.1,1.4,3.1,3.1v6.1c0,0.8-0.3,1.6-0.9,2.2
	C540.9,369.8,540.1,370.2,539.3,370.2z"/>
<path class="st1" d="M545.5,474.3h-12.3l6.1,18.4L545.5,474.3z"/>
</svg>
