<?xml version="1.0" encoding="utf-8"?>
<!-- Generator: Adobe Illustrator 26.2.1, SVG Export Plug-In . SVG Version: 6.00 Build 0)  -->
<svg version="1.1" id="Layer_1" xmlns="http://www.w3.org/2000/svg" xmlns:xlink="http://www.w3.org/1999/xlink" x="0px" y="0px"
	 viewBox="0 0 100 77.6" style="enable-background:new 0 0 100 77.6;" xml:space="preserve">
<style type="text/css">
	.st0{fill:#202332;}
	.st1{fill:#4CA1D9;}
</style>
<path class="st0" d="M97.5,44.1c-0.6-5.1-4.4-9.2-9.3-10.4l-4.8,12.1l-1-8.8h0.6c0.4,0,0.8-0.4,0.8-0.8v-2.3c0-0.4-0.3-0.8-0.8-0.8
	h-3.8c-0.4,0-0.8,0.4-0.8,0.8v2.3c0,0.4,0.4,0.8,0.8,0.8h0.7l-1,8.8L74,33.7c-4,1-7.3,3.8-8.7,7.8c3.5,2.7,5.8,6.8,6.5,11.4l0.6,6.1
	c7.3,0.1,16.9,0.1,22.5-0.1c2.2-0.1,3.9-2,3.6-4.2L97.5,44.1z"/>
<path class="st0" d="M91.9,20.2c0,6-4.9,10.9-10.9,10.9s-10.9-4.9-10.9-10.9S75,9.3,81,9.3C87,9.3,91.9,14.2,91.9,20.2"/>
<path class="st0" d="M28.9,58.9l0.6-6.2c0.5-4.5,2.9-8.6,6.5-11.3c-1.3-3.8-4.5-6.8-8.6-7.8l-4.8,12.1l-1-8.8h0.7
	c0.4,0,0.8-0.4,0.8-0.8v-2.3c0-0.4-0.4-0.8-0.8-0.8h-3.8c-0.4,0-0.8,0.4-0.8,0.8v2.3c0,0.4,0.4,0.8,0.8,0.8h0.7l-1,8.8l-4.8-12.1
	c-4.9,1.2-8.8,5.2-9.4,10.5l-1,10.5c-0.3,2.2,1.4,4.2,3.7,4.2C12,59,21.7,59,28.9,58.9L28.9,58.9z"/>
<path class="st0" d="M31.2,20.2c0,6-4.9,10.9-10.9,10.9S9.5,26.2,9.5,20.2S14.3,9.3,20.4,9.3S31.2,14.2,31.2,20.2"/>
<path class="st1" d="M57.8,42.9L53,55l-1-8.8h0.7c0.4,0,0.8-0.3,0.8-0.8v-2.3c0-0.4-0.3-0.8-0.8-0.8h-3.8c-0.4,0-0.8,0.3-0.8,0.8
	v2.3c0,0.4,0.3,0.8,0.8,0.8h0.7l-1,8.8l-4.8-12.1c-4.8,1.2-8.7,5.2-9.3,10.4l-1.1,10.5c-0.2,2.2,1.4,4.1,3.7,4.2
	c7,0.3,20.7,0.3,27.6,0c2.2-0.1,3.9-2,3.7-4.2l-1.3-10.5C66.5,48,62.7,44,57.8,42.9L57.8,42.9z"/>
<path class="st1" d="M61.5,29.4c0,6-4.8,10.8-10.8,10.8s-10.8-4.8-10.8-10.8c0-6,4.8-10.8,10.8-10.8S61.5,23.4,61.5,29.4"/>
<path class="st1" d="M333.1,19.7H324c-0.9,0-1.7-0.7-1.7-1.7V8.3h-29v56.3h39.7L333.1,19.7z M327.6,55.1H299c-0.9,0-1.7-0.7-1.7-1.7
	s0.7-1.7,1.7-1.7h28.7c0.9,0,1.7,0.7,1.7,1.7C329.3,54.4,328.5,55.1,327.6,55.1L327.6,55.1z M327.6,40.9H299c-0.9,0-1.7-0.7-1.7-1.7
	s0.7-1.7,1.7-1.7h28.7c0.9,0,1.7,0.7,1.7,1.7C329.3,40.2,328.5,40.9,327.6,40.9L327.6,40.9z M327.6,26.8H299c-0.9,0-1.7-0.7-1.7-1.7
	c0-0.9,0.7-1.7,1.7-1.7h28.7c0.9,0,1.7,0.7,1.7,1.7C329.3,26,328.5,26.8,327.6,26.8L327.6,26.8z"/>
<path class="st0" d="M336,16.8C336,16.9,336,16.9,336,16.8c0.1,0.2,0.2,0.2,0.2,0.3c0.1,0.1,0.1,0.2,0.2,0.2
	c0.1,0.2,0.1,0.4,0.1,0.6v12h7.7c0.9,0,1.7,0.7,1.7,1.7c0,0.9-0.7,1.7-1.7,1.7h-7.7v10.8h7.7c0.9,0,1.7,0.7,1.7,1.7
	s-0.7,1.7-1.7,1.7l-7.7,0v10.8h7.7c0.9,0,1.7,0.7,1.7,1.7s-0.7,1.7-1.7,1.7l-7.7,0v4.6c0,0.9-0.7,1.7-1.7,1.7l-24.8,0v3.3h39.7V13.3
	h-17.1L336,16.8z"/>
<g>
	<path class="st0" d="M-140,52.1h6.6V74h-6.6V52.1z"/>
	<path class="st1" d="M-113.8,48.1c3.1,0,6,0.7,8,2.1c0.3,0.2,0.6,0.3,0.8,0.5c0.6-1.3,0.5-2.9-0.1-4.2c-0.7-1.5-1.8-2.7-3.1-3.7
		c-1.3-1-3-1.8-4.4-1.2c-0.7,0.3-1.3,1-2.1,0.8c-1-0.1-1.3-1.4-1.6-2.4c-0.3-1.3-1-2.6-1.8-3.7c-1.9,3.2-3,6.9-3,10.8
		c0,0.8,0,1.7,0.2,2.5C-118.9,48.6-116.4,48.1-113.8,48.1L-113.8,48.1z"/>
	<path class="st1" d="M-86.1,33.9c0.4,1.5,0.6,3,0.2,4.5c-0.3,1.5-1.3,2.9-2.7,3.4c-1.4,0.5-3,0.2-4.5,0.4c-3,0.4-5.3,3.2-5.9,6.1
		c-0.2,1-0.2,2-0.1,3.1h5.3c3,0,5.4,2.4,5.4,5.4c0,0.1,0,0.2,0,0.4l9.6-5.4c0.3-1.5,0.5-3.1,0.5-4.7c0-7.6-3.9-14.2-9.9-18
		C-87.2,30.6-86.6,32.2-86.1,33.9L-86.1,33.9z"/>
	<path class="st1" d="M-114,39.4c0,0.1,0,0.1,0.1,0.2c0.2-0.1,0.3-0.2,0.4-0.2c0.6-0.3,1.3-0.4,2.1-0.4c1.5,0,3.1,0.6,4.7,1.9
		c1.8,1.4,3.1,2.9,3.8,4.6c0.9,2,0.9,4.1,0.2,5.9c0.4,0.1,0.8,0.1,1.2,0.1h0.1c-0.1-1.2,0-2.4,0.2-3.5c0.8-4.1,4.1-7.4,7.8-8
		c0.7-0.1,1.3-0.1,1.8-0.1h0.5c0.6,0,1.2,0,1.6-0.2c0.6-0.2,1.1-0.9,1.3-1.8c0.2-0.9,0.1-2-0.2-3.4c-0.4-1.5-1-2.9-1.7-4.3l1.5-1.4
		c-3.2-2-7-3.1-11-3.1c-7,0-13.2,3.4-17.1,8.5l0.5,0.6C-115.2,36.2-114.4,37.8-114,39.4L-114,39.4z"/>
	<path class="st0" d="M-69.6,52.7c-1-1.4-2.8-1.8-4.2-1l-16.3,9.1c-1,0.8-2.2,1.4-3.6,1.4h-13.1c-0.6,0-1.2-0.5-1.2-1.2
		s0.5-1.2,1.2-1.2h13.1c0.8,0,1.5-0.3,2-0.8c0,0,0.1-0.1,0.1-0.1c0.6-0.6,0.9-1.3,0.9-2.2c0-1.7-1.4-3.1-3.1-3.1h-7.8
		c-1.9,0-3.8-0.6-5.5-1.7c-1.7-1.1-4.1-1.7-6.8-1.7c-3.2,0-6.1,0.9-7.7,2.4c-1.7,1.7-4.1,2.6-6.7,2.6h-2.9v15.2
		c3.5-0.8,7.2-1.1,10.5-1.1c7,0,12.5,1.2,12.9,1.3c0.3,0,0.7,0.1,1.1,0.2c6.8,0.8,13.9-0.7,20-4.3l15.8-9.3c0.8-0.5,1.3-1.2,1.5-2.1
		C-69,54.3-69.1,53.4-69.6,52.7L-69.6,52.7z"/>
	<path class="st1" d="M-99.6,13.1c1.1-1.5,2.4-2.7,4-3.6c-0.3-2.1-1.2-4.2-2.9-5.8l-1.2-1.2l-1.2,1.2c-1.6,1.6-2.6,3.7-2.9,5.8
		C-102.1,10.4-100.7,11.6-99.6,13.1L-99.6,13.1z"/>
	<path class="st1" d="M-101.3,22h0.5v1.4c0.4,0,0.8,0,1.2,0c0.4,0,0.8,0,1.2,0V22h0.5c5.6,0,10.1-4.5,10.1-10.1l0-1.7h-1.7
		c-5.5,0-9.9,4.3-10.1,9.7h0h0c-0.2-5.4-4.7-9.7-10.1-9.7h-1.7v1.7C-111.4,17.5-106.9,22-101.3,22L-101.3,22z"/>
</g>
</svg>
